<?xml version="1.0" encoding="UTF-8" standalone="no"?>
<svg
   viewBox="0 0 150.09113 25.543283"
   version="1.1"
   id="svg5"
   sodipodi:docname="openagenda.svg"
   width="150.09114"
   height="25.543283"
   inkscape:version="1.3.2 (1:1.3.2+202311252150+091e20ef0f)"
   xmlns:inkscape="http://www.inkscape.org/namespaces/inkscape"
   xmlns:sodipodi="http://sodipodi.sourceforge.net/DTD/sodipodi-0.dtd"
   xmlns="http://www.w3.org/2000/svg"
   xmlns:svg="http://www.w3.org/2000/svg">
  <defs
     id="defs5" />
  <sodipodi:namedview
     id="namedview5"
     pagecolor="#ffffff"
     bordercolor="#666666"
     borderopacity="1.0"
     inkscape:showpageshadow="2"
     inkscape:pageopacity="0.0"
     inkscape:pagecheckerboard="0"
     inkscape:deskcolor="#d1d1d1"
     showgrid="false"
     inkscape:zoom="8.461659"
     inkscape:cx="79.00342"
     inkscape:cy="28.245052"
     inkscape:window-width="2560"
     inkscape:window-height="1376"
     inkscape:window-x="0"
     inkscape:window-y="27"
     inkscape:window-maximized="1"
     inkscape:current-layer="svg5" />
  <rect
     style="color:#000000;display:inline;overflow:visible;visibility:visible;fill:none;fill-opacity:1;fill-rule:nonzero;stroke:none;stroke-width:2.38125;marker:none;enable-background:accumulate"
     id="rect1"
     width="0"
     height="0"
     x="-0.0039528022"
     y="-0.29986477" />
  <path
     d="m 25.730047,13.096135 c 0,2.16 1.53,3.915 3.757,3.915 2.228,0 3.758,-1.755 3.758,-3.915 0,-2.137 -1.53,-3.9149998 -3.758,-3.9149998 -2.227,0 -3.757,1.7779998 -3.757,3.9149998 m -1.8,0.022 c 0,-3.105 2.452,-5.6019998 5.557,-5.6019998 3.105,0 5.558,2.4969998 5.558,5.6019998 a 5.527,5.527 0 0 1 -5.558,5.559 5.527,5.527 0 0 1 -5.557,-5.559 m 15.212,-0.135 c 0,2.07 1.215,4.028 3.465,4.028 2.317,0 3.533,-1.867 3.533,-4.005 0,-2.115 -1.328,-3.8249998 -3.556,-3.8249998 -2.092,0 -3.442,1.8219998 -3.442,3.8019998 m 0.09,-3.6669998 h 0.045 c 0.878,-1.17 2.182,-1.8 3.645,-1.8 3.105,0 5.063,2.6769998 5.063,5.6019998 0,3.016 -1.913,5.559 -5.086,5.559 -1.44,0 -2.768,-0.63 -3.622,-1.778 h -0.045 v 7.425 h -1.8 V 7.8081352 h 1.8 z m 18.588,2.6319998 c -0.248,-1.53 -1.531,-2.7669998 -3.106,-2.7669998 -1.553,0 -2.993,1.2379998 -3.218,2.7669998 z m -6.414,1.53 c 0.023,1.958 1.418,3.533 3.466,3.533 1.53,0 2.52,-0.922 3.217,-2.182 l 1.53,0.877 c -1.012,1.89 -2.722,2.97 -4.883,2.97 -3.15,0 -5.175,-2.407 -5.175,-5.445 0,-3.128 1.823,-5.7149998 5.13,-5.7149998 3.398,0 5.198,2.8129998 5.018,5.9619998 z m 12.579,-4.3869998 h 0.046 c 0.742,-1.013 1.71,-1.575 3.015,-1.575 2.925,0 3.6,2.115 3.6,4.5899998 v 6.278 h -1.8 v -5.963 c 0,-1.71 -0.135,-3.2399998 -2.227,-3.2399998 -2.476,0 -2.634,2.2949998 -2.634,4.1849998 v 5.018 h -1.8 V 7.8081352 h 1.8 z"
     style="fill:#41acdd;fill-opacity:1;fill-rule:nonzero;stroke:none;stroke-width:0.330729"
     id="path1" />
  <path
     d="m 75.013047,12.983135 c 0,2.07 1.215,4.028 3.465,4.028 2.318,0 3.533,-1.867 3.533,-4.005 0,-2.115 -1.328,-3.8249998 -3.556,-3.8249998 -2.092,0 -3.442,1.8219998 -3.442,3.8019998 m 8.708,5.4 h -1.8 v -1.462 h -0.046 c -0.922,1.17 -2.16,1.756 -3.645,1.756 -3.104,0 -5.062,-2.633 -5.062,-5.559 0,-3.015 1.912,-5.6019998 5.085,-5.6019998 1.44,0 2.745,0.675 3.622,1.8 h 0.046 v -1.508 h 1.8 z m 4.164,-5.4 c 0,2.07 1.215,4.028 3.466,4.028 2.317,0 3.532,-1.867 3.532,-4.005 0,-2.115 -1.328,-3.8249998 -3.555,-3.8249998 -2.093,0 -3.443,1.8219998 -3.443,3.8019998 m 8.708,4.883 c 0,1.688 0,3.15 -1.08,4.546 -0.99,1.26 -2.52,1.867 -4.095,1.867 -2.948,0 -5.13,-1.867 -5.198,-4.86 h 1.8 c 0.023,1.957 1.44,3.195 3.375,3.195 2.79,0 3.398,-2.047 3.398,-4.432 v -1.26 h -0.045 c -0.855,1.102 -2.25,1.755 -3.668,1.755 -3.082,0 -5.04,-2.588 -5.04,-5.536 0,-2.97 1.98,-5.6249998 5.108,-5.6249998 1.463,0 2.745,0.652 3.6,1.8 h 0.045 v -1.508 h 1.8 z m 10.824003,-5.918 c -0.247,-1.53 -1.53,-2.7669998 -3.105,-2.7669998 -1.552,0 -2.992,1.2379998 -3.217,2.7669998 z m -6.413,1.53 c 0.023,1.958 1.418,3.533 3.466,3.533 1.53,0 2.52,-0.922 3.218,-2.182 l 1.53,0.877 c -1.013,1.89 -2.723,2.97 -4.883,2.97 -3.15,0 -5.176003,-2.407 -5.176003,-5.445 0,-3.128 1.823003,-5.7149998 5.130003,-5.7149998 3.399,0 5.199,2.8129998 5.019,5.9619998 z m 12.58,-4.3869998 h 0.045 c 0.743,-1.013 1.71,-1.575 3.015,-1.575 2.925,0 3.6,2.115 3.6,4.5899998 v 6.278 h -1.8 v -5.963 c 0,-1.71 -0.135,-3.2399998 -2.227,-3.2399998 -2.475,0 -2.633,2.2949998 -2.633,4.1849998 v 5.018 h -1.8 V 7.8081352 h 1.8 z m 11.026,3.8919998 c 0,2.07 1.217,4.028 3.466,4.028 2.318,0 3.533,-1.867 3.533,-4.005 0,-2.115 -1.327,-3.8249998 -3.555,-3.8249998 -2.093,0 -3.443,1.8219998 -3.443,3.8019998 m 6.908,3.938 h -0.045 c -0.878,1.148 -2.205,1.756 -3.645,1.756 -3.105,0 -5.063,-2.633 -5.063,-5.559 0,-3.015 1.913,-5.6019998 5.086,-5.6019998 1.417,0 2.767,0.675 3.622,1.8 h 0.045 v -9.49599997 h 1.8 V 18.384135 h -1.8 z m 6.077,-3.938 c 0,2.07 1.215,4.028 3.465,4.028 2.318,0 3.533,-1.867 3.533,-4.005 0,-2.115 -1.328,-3.8249998 -3.556,-3.8249998 -2.092,0 -3.442,1.8219998 -3.442,3.8019998 m 8.708,5.4 h -1.8 v -1.462 h -0.045 c -0.923,1.17 -2.16,1.756 -3.645,1.756 -3.105,0 -5.063,-2.633 -5.063,-5.559 0,-3.015 1.912,-5.6019998 5.085,-5.6019998 1.44,0 2.745,0.675 3.623,1.8 h 0.045 v -1.508 h 1.8 z"
     style="fill:#413a42;fill-opacity:1;fill-rule:nonzero;stroke:none;stroke-width:0.330729"
     id="path2" />
  <path
     d="m 16.020047,24.606135 c 0,0.391 -2.138,0.708 -4.776,0.708 -2.6389998,0 -4.7779998,-0.317 -4.7779998,-0.708 0,-0.39 2.139,-0.707 4.7779998,-0.707 2.638,0 4.777,0.316 4.777,0.707"
     style="fill:#cdcdcc;fill-opacity:1;fill-rule:nonzero;stroke:none;stroke-width:0.330729"
     clip-path="url(#clipPath3)"
     id="path3" />
  <path
     style="fill:#413a42;fill-opacity:1;fill-rule:nonzero;stroke:none;stroke-width:0.264583"
     d="m 11.069047,-0.17986477 a 8.633,8.633 0 0 0 -8.6319998,8.63199997 8.58,8.58 0 0 0 1.05,4.1339998 c 0.067,0.152 0.163,0.31 0.28,0.471 l 0.017,0.025 c 0.204,0.32 0.435,0.628 0.678,0.918 l 0.513,0.703 3.258,4.448 1.207,1.654 c 0.8959998,1.226 2.3609998,1.226 3.2569998,0 l 1.208,-1.646 3.266,-4.456 0.553,-0.761 c 0.207,-0.25 0.393,-0.513 0.571,-0.785 l 0.083,-0.1 c 0.13,-0.177 0.22,-0.355 0.29,-0.52 a 8.576,8.576 0 0 0 1.033,-4.0849998 8.633,8.633 0 0 0 -8.632,-8.63199997 z m 0,1.24799997 a 7.136,7.136 0 1 1 0,14.2709998 7.136,7.136 0 0 1 0,-14.2699998 z"
     id="path4" />
  <path
     d="m 6.9230472,5.8881352 3.8799998,4.076 4.093,-6.004"
     style="fill:none;stroke:#41acdd;stroke-width:1.69829;stroke-linecap:round;stroke-linejoin:miter;stroke-miterlimit:10;stroke-dasharray:none;stroke-opacity:1"
     id="path5" />
</svg>
